# xmcd
#
# Track frame offsets:
#  150
#  7783
#  30614
#  42155
#  74346
#  88489
#  102938
#  106962
#  119513
#  139494
#  154372
#  203871
#
# Disc length: 2727 seconds
#
# Revision: 0
# Processed by: cddbd v1.4PL0 Copyright (c) Steve Scherf et al.
# Submitted via: AltoMP3_Maker 3.0
#
DISCID=a80aa50c
DTITLE=Sadistik Exekution - Fukk
DYEAR=1900
DGENRE=
TTITLE0=Rigormortik Resurrektion
TTITLE1=Fukking Death
TTITLE2=Sister Valerie
TTITLE3=Spiritual Dynamix
TTITLE4=Fukkminded
TTITLE5=Organized Sadistik Abuse
TTITLE6=Twisted By Torture
TTITLE7=Darth
TTITLE8=Koffin White
TTITLE9=Blakk Mass Murder
TTITLE10=The Final Exekution
TTITLE11=Only Death Is Real
EXTD=
EXTT0=
EXTT1=
EXTT2=
EXTT3=
EXTT4=
EXTT5=
EXTT6=
EXTT7=
EXTT8=
EXTT9=
EXTT10=
EXTT11=
PLAYORDER=
